<mxfile host="app.diagrams.net" modified="2023-10-26T02:24:32.773Z" agent="Mozilla/5.0 (X11; Linux x86_64) AppleWebKit/537.36 (KHTML, like Gecko) Chrome/116.0.0.0 YaBrowser/23.9.0.0 Safari/537.36" etag="hE7paf2lScL_D7_nqtAU" version="22.0.8" type="github">
  <diagram name="Страница — 1" id="T8kGE10amlnnFg_iXfAe">
    <mxGraphModel dx="841" dy="802" grid="1" gridSize="10" guides="1" tooltips="1" connect="1" arrows="1" fold="1" page="1" pageScale="1" pageWidth="827" pageHeight="1169" math="0" shadow="0">
      <root>
        <mxCell id="0" />
        <mxCell id="1" parent="0" />
        <mxCell id="DDndBa3pNJd_T9fPR2jt-14" value="sd BeautySalon.&lt;span style=&quot;border-color: var(--border-color); text-align: left;&quot;&gt;addNewClientWithOrder&lt;/span&gt;()" style="shape=umlFrame;whiteSpace=wrap;html=1;pointerEvents=0;width=260;height=30;" parent="1" vertex="1">
          <mxGeometry x="20" y="190" width="800" height="390" as="geometry" />
        </mxCell>
        <mxCell id="DDndBa3pNJd_T9fPR2jt-15" value=":BeautySalon" style="shape=umlLifeline;perimeter=lifelinePerimeter;whiteSpace=wrap;html=1;container=1;dropTarget=0;collapsible=0;recursiveResize=0;outlineConnect=0;portConstraint=eastwest;newEdgeStyle={&quot;curved&quot;:0,&quot;rounded&quot;:0};" parent="1" vertex="1">
          <mxGeometry x="80" y="229" width="100" height="341" as="geometry" />
        </mxCell>
        <mxCell id="DDndBa3pNJd_T9fPR2jt-18" value="" style="html=1;points=[[0,0,0,0,5],[0,1,0,0,-5],[1,0,0,0,5],[1,1,0,0,-5]];perimeter=orthogonalPerimeter;outlineConnect=0;targetShapes=umlLifeline;portConstraint=eastwest;newEdgeStyle={&quot;curved&quot;:0,&quot;rounded&quot;:0};" parent="DDndBa3pNJd_T9fPR2jt-15" vertex="1">
          <mxGeometry x="45" y="60" width="10" height="260" as="geometry" />
        </mxCell>
        <mxCell id="DDndBa3pNJd_T9fPR2jt-17" value=":Order" style="shape=umlLifeline;perimeter=lifelinePerimeter;whiteSpace=wrap;html=1;container=1;dropTarget=0;collapsible=0;recursiveResize=0;outlineConnect=0;portConstraint=eastwest;newEdgeStyle={&quot;curved&quot;:0,&quot;rounded&quot;:0};" parent="1" vertex="1">
          <mxGeometry x="605" y="350" width="100" height="210" as="geometry" />
        </mxCell>
        <mxCell id="DDndBa3pNJd_T9fPR2jt-30" value="" style="html=1;points=[[0,0,0,0,5],[0,1,0,0,-5],[1,0,0,0,5],[1,1,0,0,-5]];perimeter=orthogonalPerimeter;outlineConnect=0;targetShapes=umlLifeline;portConstraint=eastwest;newEdgeStyle={&quot;curved&quot;:0,&quot;rounded&quot;:0};" parent="DDndBa3pNJd_T9fPR2jt-17" vertex="1">
          <mxGeometry x="45" y="40" width="10" height="140" as="geometry" />
        </mxCell>
        <mxCell id="DDndBa3pNJd_T9fPR2jt-35" value="change(s:Service)" style="html=1;align=left;spacingLeft=2;endArrow=block;rounded=0;edgeStyle=orthogonalEdgeStyle;curved=0;rounded=0;" parent="DDndBa3pNJd_T9fPR2jt-17" edge="1">
          <mxGeometry relative="1" as="geometry">
            <mxPoint x="55" y="91" as="sourcePoint" />
            <Array as="points">
              <mxPoint x="90" y="91" />
              <mxPoint x="90" y="151" />
            </Array>
            <mxPoint x="55" y="151" as="targetPoint" />
            <mxPoint as="offset" />
          </mxGeometry>
        </mxCell>
        <mxCell id="DDndBa3pNJd_T9fPR2jt-26" value="client:Client" style="shape=umlLifeline;perimeter=lifelinePerimeter;whiteSpace=wrap;html=1;container=1;dropTarget=0;collapsible=0;recursiveResize=0;outlineConnect=0;portConstraint=eastwest;newEdgeStyle={&quot;curved&quot;:0,&quot;rounded&quot;:0};" parent="1" vertex="1">
          <mxGeometry x="364" y="305" width="100" height="260" as="geometry" />
        </mxCell>
        <mxCell id="DDndBa3pNJd_T9fPR2jt-27" value="" style="html=1;points=[[0,0,0,0,5],[0,1,0,0,-5],[1,0,0,0,5],[1,1,0,0,-5]];perimeter=orthogonalPerimeter;outlineConnect=0;targetShapes=umlLifeline;portConstraint=eastwest;newEdgeStyle={&quot;curved&quot;:0,&quot;rounded&quot;:0};" parent="DDndBa3pNJd_T9fPR2jt-26" vertex="1">
          <mxGeometry x="45" y="40" width="10" height="190" as="geometry" />
        </mxCell>
        <mxCell id="DDndBa3pNJd_T9fPR2jt-36" value="loop [isReady = false]" style="shape=umlFrame;whiteSpace=wrap;html=1;pointerEvents=0;width=160;height=20;" parent="1" vertex="1">
          <mxGeometry x="639" y="411" width="155" height="100" as="geometry" />
        </mxCell>
        <mxCell id="DDndBa3pNJd_T9fPR2jt-41" value="addNewOrder(orderLog)" style="endArrow=open;endSize=12;dashed=1;html=1;rounded=0;" parent="1" source="DDndBa3pNJd_T9fPR2jt-27" edge="1">
          <mxGeometry x="-0.0303" y="10" width="160" relative="1" as="geometry">
            <mxPoint x="507" y="370" as="sourcePoint" />
            <mxPoint x="605" y="370" as="targetPoint" />
            <mxPoint as="offset" />
          </mxGeometry>
        </mxCell>
        <mxCell id="DDndBa3pNJd_T9fPR2jt-44" value="&lt;span style=&quot;border-color: var(--border-color); text-align: left; background-color: rgb(251, 251, 251);&quot;&gt;&lt;font style=&quot;font-size: 11px;&quot;&gt;addNewClientWithOrder(&lt;u style=&quot;border-color: var(--border-color); font-size: 12px;&quot;&gt;clients&lt;/u&gt;)&lt;/font&gt;&lt;/span&gt;" style="endArrow=open;endSize=12;dashed=1;html=1;rounded=0;" parent="1" source="DDndBa3pNJd_T9fPR2jt-18" edge="1">
          <mxGeometry x="0.0222" y="10" width="160" relative="1" as="geometry">
            <mxPoint x="140" y="320" as="sourcePoint" />
            <mxPoint x="360" y="320" as="targetPoint" />
            <mxPoint as="offset" />
          </mxGeometry>
        </mxCell>
        <mxCell id="DDndBa3pNJd_T9fPR2jt-53" value="" style="endArrow=block;endFill=1;html=1;edgeStyle=orthogonalEdgeStyle;align=left;verticalAlign=top;rounded=0;" parent="1" target="DDndBa3pNJd_T9fPR2jt-18" edge="1">
          <mxGeometry x="-1" relative="1" as="geometry">
            <mxPoint x="40" y="301" as="sourcePoint" />
            <mxPoint x="120" y="300" as="targetPoint" />
            <Array as="points">
              <mxPoint x="50" y="301" />
              <mxPoint x="50" y="301" />
            </Array>
          </mxGeometry>
        </mxCell>
        <mxCell id="DDndBa3pNJd_T9fPR2jt-56" value="" style="html=1;verticalAlign=bottom;endArrow=open;dashed=1;endSize=8;curved=0;rounded=0;" parent="1" edge="1">
          <mxGeometry relative="1" as="geometry">
            <mxPoint x="125" y="538" as="sourcePoint" />
            <mxPoint x="40" y="538" as="targetPoint" />
            <Array as="points">
              <mxPoint x="80" y="538" />
            </Array>
          </mxGeometry>
        </mxCell>
        <mxCell id="DDndBa3pNJd_T9fPR2jt-61" value="client" style="html=1;verticalAlign=bottom;endArrow=open;dashed=1;endSize=8;curved=0;rounded=0;" parent="1" edge="1">
          <mxGeometry relative="1" as="geometry">
            <mxPoint x="403" y="528" as="sourcePoint" />
            <mxPoint x="138" y="528" as="targetPoint" />
          </mxGeometry>
        </mxCell>
        <mxCell id="DDndBa3pNJd_T9fPR2jt-62" value="&lt;font style=&quot;font-size: 11px;&quot;&gt;addToDataBase()&lt;/font&gt;" style="text;html=1;align=center;verticalAlign=middle;resizable=0;points=[];autosize=1;strokeColor=none;fillColor=none;" parent="1" vertex="1">
          <mxGeometry x="20" y="275" width="110" height="30" as="geometry" />
        </mxCell>
        <mxCell id="HODoRa-zplLp1nhRTeG6-1" value="order" style="html=1;verticalAlign=bottom;endArrow=open;dashed=1;endSize=8;curved=0;rounded=0;" edge="1" parent="1">
          <mxGeometry relative="1" as="geometry">
            <mxPoint x="650" y="520" as="sourcePoint" />
            <mxPoint x="420" y="520" as="targetPoint" />
          </mxGeometry>
        </mxCell>
      </root>
    </mxGraphModel>
  </diagram>
</mxfile>
